<svg width="234" height="149" viewBox="0 0 234 149" fill="none" xmlns="http://www.w3.org/2000/svg">
<path d="M180.287 106.179V111.263H171.501V134.65H165.725V111.263H156.9V106.179H180.287Z" fill="black"/>
<path d="M204.443 134.65H183.945V106.179H204.078V111.263H189.721V117.852H199.849V122.895H189.721V129.566H204.443V134.65Z" fill="black"/>
<path d="M222.378 117.364L227.015 106.179H233.155L227.341 119.845L233.726 134.649H227.341L222.501 122.408H218.514L213.674 134.649H207.289L213.674 119.804L207.858 106.179H213.999L218.635 117.364H222.378Z" fill="black"/>
<path d="M18.6293 117.689V106.179H24.404V134.649H18.6293V125.132L6.83466 113.948H6.672V134.649H0.895996V106.179H6.30533L18.4667 117.689H18.6293Z" fill="black"/>
<path d="M47.2192 116.917C47.2192 112.809 44.8205 110.573 41.7698 110.573C38.6778 110.573 36.2778 112.809 36.2778 116.917V120.374H47.2192V116.917ZM52.9952 134.65H47.2192V125.458H36.2778V134.65H30.5032V116.225C30.5032 109.718 36.0752 105.529 41.7698 105.529C47.4632 105.529 52.9952 110.125 52.9952 116.225V134.65Z" fill="black"/>
<path d="M73.8975 115.534C73.8975 113.134 72.1482 111.263 69.7495 111.263H64.8695V119.967H69.7495C72.1482 119.967 73.8975 117.934 73.8975 115.534ZM64.8695 125.01V134.65H59.0935V106.179H69.5868C75.6468 106.179 79.5922 110.368 79.5922 115.412C79.5922 120.822 76.3388 123.383 73.9788 124.278L80.4055 134.65H73.4908L67.9588 125.01H64.8695Z" fill="black"/>
<path d="M85.6909 106.179H91.5069V134.65H85.6909V106.179Z" fill="black"/>
<path d="M107.165 101.014C106.635 101.014 106.27 101.665 106.27 102.6H102.325C102.325 99.7116 103.463 96.4583 106.677 96.4583C107.611 96.4583 108.385 96.6209 109.605 97.1089C111.231 97.8009 111.842 98.0449 112.37 98.0449C112.899 98.0449 113.265 97.3529 113.265 96.4583H117.21C117.21 99.3063 116.03 102.6 112.859 102.6C111.842 102.6 111.273 102.478 109.93 101.909C108.141 101.136 107.653 101.014 107.165 101.014ZM115.747 117.689V106.18H121.522V134.65H115.747V125.132L103.951 113.948H103.789V134.65H98.0139V106.18H103.422L115.583 117.689H115.747Z" fill="black"/>
<path d="M149.216 120.577C149.216 115.005 145.963 110.856 140.716 110.856C135.511 110.856 132.216 115.005 132.216 120.577C132.216 126.149 135.511 129.972 140.716 129.972C145.963 129.972 149.216 126.149 149.216 120.577ZM155.074 120.577C155.074 128.427 149.582 135.016 140.716 135.016C131.85 135.016 126.4 128.427 126.4 120.577C126.4 112.361 131.85 105.772 140.716 105.772C149.582 105.772 155.074 112.361 155.074 120.577Z" fill="black"/>
<path d="M5.64933 141.905H3.232V148.711H2.42V141.905H0V141.149H5.64933V141.905Z" fill="black"/>
<path d="M7.39941 148.711V141.149H12.4887V141.906H8.21141V144.175H11.9701V144.931H8.21141V147.955H12.4887V148.711H7.39941Z" fill="black"/>
<path d="M17.5121 146.531C17.5121 146.817 17.4627 147.101 17.3614 147.37C17.2601 147.645 17.1147 147.891 16.9281 148.106C16.7401 148.325 16.5147 148.497 16.2481 148.626C15.9801 148.754 15.6787 148.819 15.3414 148.819C15.1094 148.819 14.8734 148.779 14.6334 148.699C14.3907 148.622 14.1787 148.487 13.9907 148.303L14.2387 147.534C14.3841 147.715 14.5627 147.841 14.7747 147.913C14.9867 147.986 15.1747 148.019 15.3414 148.019C15.5707 148.019 15.7707 147.977 15.9401 147.885C16.1094 147.795 16.2507 147.678 16.3681 147.534C16.4814 147.39 16.5681 147.229 16.6201 147.054C16.6761 146.878 16.7027 146.703 16.7027 146.531V141.149H17.5121V146.531Z" fill="black"/>
<path d="M20.7536 148.711H19.9417V141.148H20.7536V148.711Z" fill="black"/>
<path d="M23.2231 148.711V141.149H28.3138V141.906H24.0351V144.175H27.7938V144.931H24.0351V147.955H28.3138V148.711H23.2231Z" fill="black"/>
<path d="M35.7127 148.711L31.0874 142.37V148.711H30.2781V141.149H31.1861L35.7994 147.481V141.149H36.6074V148.711H35.7127Z" fill="black"/>
<path d="M39.7633 141.896V147.955H41.2767C41.7647 147.955 42.2087 147.878 42.6047 147.724C42.9993 147.567 43.334 147.355 43.6073 147.084C43.8807 146.816 44.094 146.494 44.2407 146.124C44.3887 145.754 44.462 145.356 44.462 144.931C44.462 144.507 44.3887 144.107 44.2407 143.738C44.094 143.367 43.8807 143.043 43.6073 142.77C43.334 142.496 42.9993 142.284 42.6047 142.127C42.2087 141.974 41.7647 141.896 41.2767 141.896H39.7633ZM38.9553 148.711V141.139H41.2767C41.874 141.139 42.418 141.238 42.9127 141.435C43.4047 141.635 43.826 141.906 44.1767 142.254C44.5247 142.598 44.794 143 44.986 143.462C45.1767 143.923 45.2713 144.415 45.2713 144.94C45.2713 145.467 45.1767 145.959 44.986 146.418C44.794 146.872 44.5247 147.272 44.1767 147.614C43.826 147.958 43.4073 148.226 42.9193 148.419C42.4273 148.614 41.8793 148.711 41.2767 148.711H38.9553Z" fill="black"/>
<path d="M53.6125 144.931C53.6125 144.498 53.5352 144.093 53.3858 143.717C53.2338 143.338 53.0285 143.006 52.7698 142.726C52.5085 142.446 52.2045 142.222 51.8498 142.055C51.4965 141.893 51.1178 141.81 50.7152 141.81C50.3125 141.81 49.9338 141.893 49.5845 142.055C49.2298 142.222 48.9218 142.446 48.6645 142.726C48.4058 143.006 48.1992 143.338 48.0498 143.717C47.8978 144.093 47.8218 144.498 47.8218 144.931C47.8218 145.362 47.8978 145.767 48.0498 146.146C48.1992 146.525 48.4085 146.854 48.6765 147.134C48.9405 147.417 49.2512 147.638 49.6058 147.803C49.9552 147.97 50.3312 148.053 50.7272 148.053C51.1312 148.053 51.5058 147.97 51.8565 147.803C52.2045 147.638 52.5085 147.417 52.7698 147.134C53.0285 146.854 53.2338 146.525 53.3858 146.146C53.5352 145.767 53.6125 145.362 53.6125 144.931ZM47.0005 144.941C47.0005 144.403 47.0992 143.891 47.2925 143.418C47.4858 142.942 47.7538 142.53 48.0925 142.182C48.4298 141.831 48.8272 141.554 49.2792 141.349C49.7338 141.146 50.2178 141.041 50.7272 141.041C51.2378 141.041 51.7178 141.142 52.1698 141.346C52.6192 141.545 53.0125 141.822 53.3485 142.175C53.6832 142.53 53.9472 142.942 54.1418 143.413C54.3352 143.886 54.4338 144.39 54.4338 144.931C54.4338 145.47 54.3352 145.977 54.1418 146.447C53.9472 146.922 53.6832 147.334 53.3485 147.683C53.0125 148.038 52.6192 148.315 52.1698 148.517C51.7178 148.717 51.2378 148.819 50.7272 148.819C50.2178 148.819 49.7338 148.717 49.2792 148.517C48.8272 148.315 48.4298 148.041 48.0925 147.69C47.7538 147.343 47.4858 146.931 47.2925 146.459C47.0992 145.987 47.0005 145.482 47.0005 144.941Z" fill="black"/>
<path d="M60.6769 141.896V147.955H62.1902C62.6796 147.955 63.1222 147.878 63.5182 147.724C63.9129 147.567 64.2476 147.355 64.5209 147.084C64.7956 146.816 65.0076 146.494 65.1542 146.124C65.3022 145.754 65.3769 145.356 65.3769 144.931C65.3769 144.507 65.3022 144.107 65.1542 143.738C65.0076 143.367 64.7956 143.043 64.5209 142.77C64.2476 142.496 63.9129 142.284 63.5182 142.127C63.1222 141.974 62.6796 141.896 62.1902 141.896H60.6769ZM59.8689 148.711V141.139H62.1902C62.7876 141.139 63.3316 141.238 63.8262 141.435C64.3182 141.635 64.7396 141.906 65.0902 142.254C65.4382 142.598 65.7089 143 65.8996 143.462C66.0902 143.923 66.1849 144.415 66.1849 144.94C66.1849 145.467 66.0902 145.959 65.8996 146.418C65.7089 146.872 65.4382 147.272 65.0902 147.614C64.7396 147.958 64.3209 148.226 63.8329 148.419C63.3409 148.614 62.7929 148.711 62.1902 148.711H59.8689Z" fill="black"/>
<path d="M68.5076 148.711V141.149H73.5969V141.906H69.3196V144.175H73.0782V144.931H69.3196V147.955H73.5969V148.711H68.5076Z" fill="black"/>
<path d="M75.7349 146.789C75.7869 146.961 75.8762 147.124 76.0055 147.276C76.1349 147.426 76.2909 147.556 76.4762 147.662C76.6602 147.77 76.8642 147.857 77.0909 147.918C77.3189 147.98 77.5522 148.01 77.7989 148.01C78.0669 148.01 78.3095 147.97 78.5335 147.897C78.7549 147.82 78.9495 147.718 79.1122 147.589C79.2749 147.46 79.4015 147.302 79.4962 147.124C79.5882 146.944 79.6349 146.749 79.6349 146.54C79.6349 146.18 79.4895 145.892 79.1975 145.67C78.9055 145.452 78.4269 145.27 77.7562 145.125C76.0269 144.757 75.1629 144.052 75.1629 143.006C75.1629 142.721 75.2282 142.456 75.3535 142.213C75.4762 141.973 75.6522 141.766 75.8762 141.592C76.0975 141.42 76.3655 141.285 76.6762 141.189C76.9842 141.09 77.3282 141.041 77.7002 141.041C78.0162 141.041 78.3162 141.074 78.5922 141.146C78.8695 141.213 79.1215 141.312 79.3429 141.441C79.5669 141.57 79.7549 141.728 79.9109 141.912C80.0655 142.096 80.1789 142.302 80.2495 142.533L79.5922 142.834C79.4989 142.538 79.2749 142.298 78.9215 142.112C78.5709 141.924 78.1549 141.832 77.6789 141.832C77.1615 141.832 76.7442 141.936 76.4269 142.149C76.1095 142.361 75.9509 142.641 75.9509 142.985C75.9509 143.312 76.1162 143.592 76.4429 143.825C76.7709 144.058 77.2855 144.249 77.9829 144.402C78.8322 144.588 79.4562 144.849 79.8495 145.184C80.2469 145.518 80.4469 145.956 80.4469 146.497C80.4469 146.82 80.3762 147.124 80.2402 147.41C80.1015 147.693 79.9149 147.94 79.6722 148.146C79.4309 148.349 79.1495 148.512 78.8189 148.632C78.4909 148.749 78.1402 148.81 77.7682 148.81C77.4575 148.81 77.1589 148.766 76.8695 148.684C76.5802 148.601 76.3189 148.484 76.0829 148.333C75.8429 148.182 75.6362 148.001 75.4615 147.792C75.2829 147.586 75.1535 147.349 75.0642 147.09L75.7349 146.789Z" fill="black"/>
<path d="M85.2628 142.167L83.8695 145.688H86.6562L85.2628 142.167ZM85.7175 141.149L88.7108 148.712H87.8548L86.9602 146.443H83.5682L82.6708 148.712H81.8188L84.8108 141.149H85.7175Z" fill="black"/>
<path d="M91.2692 144.941H93.3852C93.6252 144.941 93.8492 144.901 94.0612 144.825C94.2732 144.745 94.4585 144.637 94.6118 144.498C94.7665 144.362 94.8892 144.203 94.9785 144.018C95.0705 143.834 95.1132 143.637 95.1132 143.427C95.1132 143.213 95.0705 143.013 94.9852 142.825C94.8985 142.637 94.7785 142.474 94.6252 142.339C94.4678 142.201 94.2865 142.097 94.0772 142.019C93.8678 141.945 93.6372 141.906 93.3852 141.906H91.2692V144.941ZM90.4612 141.149H93.3852C93.7452 141.149 94.0798 141.207 94.3905 141.325C94.7012 141.438 94.9692 141.598 95.1972 141.803C95.4212 142.01 95.5998 142.25 95.7318 142.526C95.8612 142.803 95.9252 143.105 95.9252 143.427C95.9252 143.747 95.8612 144.043 95.7318 144.319C95.5998 144.597 95.4212 144.839 95.1972 145.046C94.9692 145.249 94.7012 145.409 94.3972 145.525C94.0892 145.639 93.7572 145.697 93.3972 145.697H93.1598L95.8265 148.711H94.7478L92.0772 145.697H91.2692V148.711H90.4612V141.149Z" fill="black"/>
<path d="M98.7211 144.941H100.837C101.077 144.941 101.302 144.901 101.514 144.825C101.726 144.745 101.91 144.637 102.064 144.498C102.218 144.362 102.341 144.203 102.43 144.018C102.522 143.834 102.565 143.637 102.565 143.427C102.565 143.213 102.522 143.013 102.437 142.825C102.35 142.637 102.23 142.474 102.077 142.339C101.92 142.201 101.738 142.097 101.529 142.019C101.32 141.945 101.089 141.906 100.837 141.906H98.7211V144.941ZM97.9131 141.149H100.837C101.197 141.149 101.532 141.207 101.842 141.325C102.153 141.438 102.421 141.598 102.649 141.803C102.873 142.01 103.052 142.25 103.184 142.526C103.313 142.803 103.377 143.105 103.377 143.427C103.377 143.747 103.313 144.043 103.184 144.319C103.052 144.597 102.873 144.839 102.649 145.046C102.421 145.249 102.153 145.409 101.849 145.525C101.541 145.639 101.209 145.697 100.849 145.697H100.613L103.278 148.711H102.2L99.5304 145.697H98.7211V148.711H97.9131V141.149Z" fill="black"/>
<path d="M111.632 144.931C111.632 144.498 111.555 144.093 111.405 143.717C111.255 143.338 111.049 143.006 110.789 142.726C110.528 142.446 110.224 142.222 109.871 142.055C109.516 141.893 109.139 141.81 108.736 141.81C108.332 141.81 107.955 141.893 107.604 142.055C107.249 142.222 106.943 142.446 106.684 142.726C106.425 143.006 106.219 143.338 106.069 143.717C105.919 144.093 105.841 144.498 105.841 144.931C105.841 145.362 105.919 145.767 106.069 146.146C106.219 146.525 106.429 146.854 106.696 147.134C106.961 147.417 107.271 147.638 107.625 147.803C107.976 147.97 108.351 148.053 108.748 148.053C109.151 148.053 109.525 147.97 109.877 147.803C110.224 147.638 110.528 147.417 110.789 147.134C111.049 146.854 111.255 146.525 111.405 146.146C111.555 145.767 111.632 145.362 111.632 144.931ZM105.02 144.941C105.02 144.403 105.119 143.891 105.312 143.418C105.505 142.942 105.773 142.53 106.112 142.182C106.451 141.831 106.847 141.554 107.299 141.349C107.755 141.146 108.237 141.041 108.748 141.041C109.259 141.041 109.737 141.142 110.191 141.346C110.639 141.545 111.033 141.822 111.368 142.175C111.704 142.53 111.968 142.942 112.161 143.413C112.355 143.886 112.453 144.39 112.453 144.931C112.453 145.47 112.355 145.977 112.161 146.447C111.968 146.922 111.704 147.334 111.368 147.683C111.033 148.038 110.639 148.315 110.191 148.517C109.737 148.717 109.259 148.819 108.748 148.819C108.237 148.819 107.755 148.717 107.299 148.517C106.847 148.315 106.451 148.041 106.112 147.69C105.773 147.343 105.505 146.931 105.312 146.459C105.119 145.987 105.02 145.482 105.02 144.941Z" fill="black"/>
<path d="M114.418 148.711V141.139H115.228V147.955H119.054V148.711H114.418Z" fill="black"/>
<path d="M121.114 148.711V141.139H121.923V147.955H125.75V148.711H121.114Z" fill="black"/>
<path d="M133.668 144.931C133.668 144.498 133.591 144.093 133.44 143.717C133.291 143.338 133.084 143.006 132.826 142.726C132.564 142.446 132.259 142.222 131.907 142.055C131.552 141.893 131.175 141.81 130.771 141.81C130.368 141.81 129.99 141.893 129.64 142.055C129.286 142.222 128.978 142.446 128.72 142.726C128.462 143.006 128.255 143.338 128.104 143.717C127.955 144.093 127.876 144.498 127.876 144.931C127.876 145.362 127.955 145.767 128.104 146.146C128.255 146.525 128.466 146.854 128.732 147.134C128.996 147.417 129.307 147.638 129.66 147.803C130.012 147.97 130.387 148.053 130.784 148.053C131.187 148.053 131.562 147.97 131.912 147.803C132.259 147.638 132.564 147.417 132.826 147.134C133.084 146.854 133.291 146.525 133.44 146.146C133.591 145.767 133.668 145.362 133.668 144.931ZM127.056 144.941C127.056 144.403 127.154 143.891 127.348 143.418C127.542 142.942 127.81 142.53 128.147 142.182C128.486 141.831 128.883 141.554 129.335 141.349C129.791 141.146 130.272 141.041 130.784 141.041C131.295 141.041 131.774 141.142 132.226 141.346C132.675 141.545 133.07 141.822 133.404 142.175C133.739 142.53 134.004 142.942 134.196 143.413C134.391 143.886 134.49 144.39 134.49 144.931C134.49 145.47 134.391 145.977 134.196 146.447C134.004 146.922 133.739 147.334 133.404 147.683C133.07 148.038 132.675 148.315 132.226 148.517C131.774 148.717 131.295 148.819 130.784 148.819C130.272 148.819 129.791 148.717 129.335 148.517C128.883 148.315 128.486 148.041 128.147 147.69C127.81 147.343 127.542 146.931 127.348 146.459C127.154 145.987 127.056 145.482 127.056 144.941Z" fill="black"/>
<path d="M140.699 144.941H142.806C143.037 144.941 143.258 144.901 143.466 144.818C143.673 144.735 143.857 144.625 144.017 144.482C144.174 144.341 144.301 144.182 144.395 143.997C144.489 143.813 144.534 143.622 144.534 143.418C144.534 143.203 144.491 143.001 144.405 142.813C144.319 142.625 144.199 142.466 144.046 142.333C143.889 142.201 143.703 142.093 143.491 142.013C143.279 141.937 143.053 141.897 142.806 141.897H140.699V144.941ZM139.89 141.139H142.806C143.166 141.139 143.501 141.198 143.811 141.311C144.122 141.429 144.39 141.589 144.617 141.791C144.841 141.997 145.019 142.241 145.153 142.518C145.282 142.794 145.346 143.095 145.346 143.418C145.346 143.729 145.275 144.018 145.139 144.293C145.005 144.566 144.821 144.809 144.59 145.018C144.358 145.227 144.091 145.393 143.783 145.513C143.479 145.635 143.154 145.697 142.806 145.697H140.699V148.711H139.89V141.139Z" fill="black"/>
<path d="M149.892 142.167L148.499 145.688H151.286L149.892 142.167ZM150.347 141.149L153.34 148.712H152.484L151.59 146.443H148.198L147.3 148.712H146.447L149.44 141.149H150.347Z" fill="black"/>
<path d="M155.899 144.941H158.015C158.255 144.941 158.479 144.901 158.691 144.825C158.903 144.745 159.088 144.637 159.241 144.498C159.395 144.362 159.519 144.203 159.607 144.018C159.7 143.834 159.743 143.637 159.743 143.427C159.743 143.213 159.7 143.013 159.613 142.825C159.528 142.637 159.408 142.474 159.255 142.339C159.096 142.201 158.916 142.097 158.705 142.019C158.497 141.945 158.265 141.906 158.015 141.906H155.899V144.941ZM155.091 141.149H158.015C158.373 141.149 158.709 141.207 159.02 141.325C159.331 141.438 159.597 141.598 159.825 141.803C160.049 142.01 160.228 142.25 160.361 142.526C160.489 142.803 160.555 143.105 160.555 143.427C160.555 143.747 160.489 144.043 160.361 144.319C160.228 144.597 160.049 144.839 159.825 145.046C159.597 145.249 159.331 145.409 159.027 145.525C158.719 145.639 158.387 145.697 158.027 145.697H157.789L160.456 148.711H159.376L156.707 145.697H155.899V148.711H155.091V141.149Z" fill="black"/>
<path d="M165.448 142.167L164.055 145.688H166.842L165.448 142.167ZM165.903 141.149L168.896 148.712H168.04L167.146 146.443H163.754L162.856 148.712H162.003L164.996 141.149H165.903Z" fill="black"/>
<path d="M180.054 147.761C179.758 148.084 179.376 148.345 178.91 148.538C178.439 148.733 177.956 148.832 177.462 148.832C176.963 148.832 176.492 148.728 176.05 148.524C175.606 148.317 175.219 148.038 174.883 147.684C174.548 147.334 174.284 146.922 174.083 146.448C173.887 145.977 173.79 145.473 173.79 144.941C173.79 144.409 173.887 143.904 174.083 143.428C174.284 142.954 174.548 142.538 174.883 142.188C175.219 141.834 175.61 141.554 176.055 141.349C176.502 141.146 176.978 141.041 177.482 141.041C177.978 141.041 178.458 141.14 178.914 141.34C179.371 141.537 179.748 141.801 180.054 142.133L179.512 142.674C179.248 142.4 178.943 142.188 178.599 142.041C178.256 141.893 177.895 141.818 177.514 141.818C177.11 141.818 176.732 141.9 176.382 142.062C176.027 142.225 175.716 142.446 175.452 142.726C175.186 143.006 174.975 143.338 174.826 143.717C174.675 144.093 174.598 144.498 174.598 144.932C174.598 145.362 174.675 145.768 174.831 146.146C174.984 146.525 175.194 146.854 175.456 147.14C175.72 147.424 176.027 147.648 176.384 147.81C176.742 147.97 177.12 148.053 177.514 148.053C177.895 148.053 178.256 147.98 178.599 147.836C178.943 147.693 179.242 147.484 179.503 147.21L180.054 147.761Z" fill="black"/>
<path d="M188.145 144.931C188.145 144.498 188.068 144.093 187.918 143.717C187.768 143.338 187.562 143.006 187.302 142.726C187.041 142.446 186.737 142.222 186.384 142.055C186.029 141.893 185.652 141.81 185.248 141.81C184.845 141.81 184.466 141.893 184.117 142.055C183.762 142.222 183.454 142.446 183.197 142.726C182.938 143.006 182.732 143.338 182.581 143.717C182.432 144.093 182.354 144.498 182.354 144.931C182.354 145.362 182.432 145.767 182.581 146.146C182.732 146.525 182.942 146.854 183.209 147.134C183.473 147.417 183.784 147.638 184.138 147.803C184.489 147.97 184.864 148.053 185.261 148.053C185.664 148.053 186.038 147.97 186.39 147.803C186.737 147.638 187.041 147.417 187.302 147.134C187.562 146.854 187.768 146.525 187.918 146.146C188.068 145.767 188.145 145.362 188.145 144.931ZM181.533 144.941C181.533 144.403 181.632 143.891 181.825 143.418C182.018 142.942 182.286 142.53 182.625 142.182C182.962 141.831 183.36 141.554 183.812 141.349C184.268 141.146 184.75 141.041 185.261 141.041C185.772 141.041 186.25 141.142 186.704 141.346C187.152 141.545 187.546 141.822 187.881 142.175C188.217 142.53 188.481 142.942 188.674 143.413C188.868 143.886 188.966 144.39 188.966 144.931C188.966 145.47 188.868 145.977 188.674 146.447C188.481 146.922 188.217 147.334 187.881 147.683C187.546 148.038 187.152 148.315 186.704 148.517C186.25 148.717 185.772 148.819 185.261 148.819C184.75 148.819 184.268 148.717 183.812 148.517C183.36 148.315 182.962 148.041 182.625 147.69C182.286 147.343 182.018 146.931 181.825 146.459C181.632 145.987 181.533 145.482 181.533 144.941Z" fill="black"/>
<path d="M190.931 148.711V141.139H191.741V147.955H195.567V148.711H190.931Z" fill="black"/>
<path d="M203.483 144.931C203.483 144.498 203.406 144.093 203.255 143.717C203.105 143.338 202.899 143.006 202.639 142.726C202.379 142.446 202.074 142.222 201.721 142.055C201.367 141.893 200.989 141.81 200.586 141.81C200.182 141.81 199.805 141.893 199.454 142.055C199.101 142.222 198.793 142.446 198.534 142.726C198.277 143.006 198.07 143.338 197.919 143.717C197.769 144.093 197.691 144.498 197.691 144.931C197.691 145.362 197.769 145.767 197.919 146.146C198.07 146.525 198.279 146.854 198.547 147.134C198.811 147.417 199.122 147.638 199.475 147.803C199.826 147.97 200.201 148.053 200.598 148.053C201.002 148.053 201.377 147.97 201.727 147.803C202.074 147.638 202.379 147.417 202.639 147.134C202.899 146.854 203.105 146.525 203.255 146.146C203.406 145.767 203.483 145.362 203.483 144.931ZM196.87 144.941C196.87 144.403 196.969 143.891 197.163 143.418C197.357 142.942 197.623 142.53 197.962 142.182C198.301 141.831 198.697 141.554 199.15 141.349C199.605 141.146 200.087 141.041 200.598 141.041C201.109 141.041 201.589 141.142 202.041 141.346C202.49 141.545 202.883 141.822 203.219 142.175C203.554 142.53 203.818 142.942 204.011 143.413C204.206 143.886 204.303 144.39 204.303 144.931C204.303 145.47 204.206 145.977 204.011 146.447C203.818 146.922 203.554 147.334 203.219 147.683C202.883 148.038 202.49 148.315 202.041 148.517C201.589 148.717 201.109 148.819 200.598 148.819C200.087 148.819 199.605 148.717 199.15 148.517C198.697 148.315 198.301 148.041 197.962 147.69C197.623 147.343 197.357 146.931 197.163 146.459C196.969 145.987 196.87 145.482 196.87 144.941Z" fill="black"/>
<path d="M209.228 145.31L207.079 142.403V148.711H206.27V141.148H207.155L209.704 144.596L212.307 141.148H213.214V148.711H212.406V142.36L210.17 145.31H209.228Z" fill="black"/>
<path d="M218.412 144.931H216.437V147.946H218.209C218.445 147.946 218.676 147.905 218.897 147.831C219.121 147.755 219.32 147.65 219.495 147.513C219.667 147.377 219.805 147.21 219.909 147.019C220.013 146.829 220.067 146.617 220.067 146.377C220.067 146.162 220.02 145.965 219.932 145.783C219.839 145.605 219.719 145.451 219.568 145.325C219.417 145.199 219.243 145.101 219.04 145.033C218.836 144.965 218.631 144.931 218.412 144.931ZM218.317 141.897H216.437V144.175H218.381C218.548 144.175 218.701 144.145 218.845 144.082C218.991 144.021 219.116 143.938 219.223 143.827C219.331 143.719 219.417 143.597 219.483 143.455C219.547 143.317 219.58 143.166 219.58 143.006C219.58 142.843 219.544 142.689 219.476 142.554C219.408 142.419 219.316 142.298 219.203 142.203C219.085 142.105 218.953 142.031 218.803 141.975C218.652 141.921 218.489 141.897 218.317 141.897ZM215.625 148.699V141.139H218.304C218.577 141.139 218.843 141.182 219.095 141.269C219.344 141.354 219.568 141.478 219.763 141.634C219.959 141.794 220.112 141.987 220.225 142.213C220.343 142.441 220.401 142.695 220.401 142.975C220.401 143.265 220.336 143.542 220.212 143.813C220.085 144.082 219.897 144.301 219.645 144.467C220.027 144.677 220.328 144.943 220.547 145.27C220.765 145.598 220.876 145.977 220.876 146.41C220.876 146.765 220.801 147.081 220.655 147.367C220.505 147.65 220.309 147.893 220.06 148.09C219.812 148.287 219.528 148.441 219.205 148.545C218.885 148.65 218.553 148.699 218.209 148.699H215.625Z" fill="black"/>
<path d="M224.019 148.711H223.207V141.148H224.019V148.711Z" fill="black"/>
<path d="M229.418 142.167L228.025 145.688H230.812L229.418 142.167ZM229.874 141.149L232.866 148.712H232.012L231.116 146.443H227.724L226.826 148.712H225.974L228.966 141.149H229.874Z" fill="black"/>
<path d="M99.0075 79.1229L111.474 47.9563C111.673 47.4589 112.149 47.1376 112.685 47.1376H120.658C121.193 47.1376 121.682 47.4736 121.876 47.9723L133.89 79.1229H135.952L123.67 47.2803C123.193 46.0443 121.984 45.2136 120.658 45.2136H112.685C111.357 45.2136 110.18 46.0109 109.688 47.2429L96.9355 79.1229H99.0075Z" fill="black"/>
<path d="M93.2491 79.1229L107.97 43.3829C108.152 42.9363 108.581 42.6483 109.064 42.6483H124.286C124.774 42.6483 125.204 42.9403 125.386 43.3976L139.804 79.1229H141.878L127.17 42.6816C126.7 41.4923 125.566 40.7243 124.286 40.7243H109.064C107.797 40.7243 106.668 41.4829 106.189 42.6523L91.1677 79.1229H93.2491Z" fill="black"/>
<path d="M87.4868 79.1229L104.465 38.8096C104.629 38.4149 105.013 38.1589 105.441 38.1589H127.915C128.345 38.1589 128.729 38.4163 128.895 38.8176L145.72 79.1229H147.805L130.672 38.0816C130.209 36.9589 129.128 36.2349 127.915 36.2349H105.441C104.236 36.2349 103.155 36.9549 102.691 38.0656L85.4001 79.1229H87.4868Z" fill="black"/>
<path d="M81.723 79.1229L100.96 34.2363C101.108 33.8923 101.446 33.6696 101.82 33.6696H131.543C131.918 33.6696 132.255 33.8923 132.404 34.2363L151.64 79.1229H153.734L134.172 33.4789C133.722 32.4269 132.69 31.7456 131.543 31.7456H101.82C100.675 31.7456 99.6416 32.4269 99.1923 33.4789L79.6296 79.1229H81.723Z" fill="black"/>
<path d="M136.779 39.5618L153.734 0.000433696H151.64L135.732 37.1191L136.779 39.5618Z" fill="black"/>
<path d="M97.6312 37.1204L81.7232 0.000380291H79.6299L96.5845 39.563L97.6312 37.1204Z" fill="black"/>
<path d="M123.731 31.746L136.428 0.000640218H134.356L121.889 31.166C121.793 31.4073 121.633 31.6046 121.432 31.746H123.731Z" fill="black"/>
<path d="M111.956 31.746C111.749 31.6006 111.583 31.3953 111.488 31.1513L99.4733 0.000640218H97.4106L109.655 31.746H111.956Z" fill="black"/>
<path d="M129.12 31.746L142.196 0.000640218H140.115L127.039 31.746H129.12Z" fill="black"/>
<path d="M106.372 31.746L93.561 0.000640218H91.4863L104.297 31.746H106.372Z" fill="black"/>
<path d="M134.003 33.1523L147.964 0.0002813H145.876L132.444 31.8963C133.092 32.1109 133.648 32.5523 134.003 33.1523Z" fill="black"/>
<path d="M100.953 31.8827L87.6434 6.64254e-06H85.5581L99.3808 33.1133C99.7421 32.5227 100.302 32.0893 100.953 31.8827Z" fill="black"/>
</svg>
